<svg xmlns="http://www.w3.org/2000/svg" xmlns:xlink="http://www.w3.org/1999/xlink" width="100" zoomAndPan="magnify" viewBox="0 0 75 74.999997" height="100" preserveAspectRatio="xMidYMid meet" version="1.0"><path fill="#5271ff" d="M 13.375 25.96875 C 14.488281 23.652344 15.921875 21.519531 17.621094 19.632812 C 14.660156 17.066406 13.023438 17.859375 11.15625 18.757812 C 10.824219 18.917969 10.488281 19.078125 10.144531 19.222656 C 10.144531 19.59375 10.125 19.96875 10.101562 20.332031 C 9.984375 22.402344 9.882812 24.214844 13.375 25.96875 " fill-opacity="1" fill-rule="nonzero"/><path fill="#5271ff" d="M 10.796875 36.078125 C 10.933594 33.46875 11.449219 30.957031 12.285156 28.59375 C 8.578125 27.367188 7.367188 28.71875 5.988281 30.265625 C 5.742188 30.539062 5.496094 30.816406 5.234375 31.082031 C 5.375 31.425781 5.5 31.777344 5.617188 32.125 C 6.300781 34.082031 6.902344 35.792969 10.796875 36.078125 " fill-opacity="1" fill-rule="nonzero"/><path fill="#5271ff" d="M 10.144531 55.777344 C 10.488281 55.921875 10.824219 56.082031 11.15625 56.242188 C 13.023438 57.140625 14.660156 57.929688 17.621094 55.367188 C 15.921875 53.476562 14.488281 51.347656 13.375 49.03125 C 9.324219 51.105469 10.121094 53.03125 10.144531 55.777344 " fill-opacity="1" fill-rule="nonzero"/><path fill="#5271ff" d="M 10.796875 38.921875 C 6.902344 39.207031 6.300781 40.917969 5.617188 42.875 C 5.5 43.222656 5.375 43.574219 5.234375 43.917969 C 5.496094 44.179688 5.742188 44.460938 5.988281 44.734375 C 7.367188 46.277344 8.578125 47.632812 12.285156 46.402344 C 11.449219 44.042969 10.933594 41.53125 10.796875 38.921875 " fill-opacity="1" fill-rule="nonzero"/><path fill="#5271ff" d="M 18.757812 63.84375 C 18.917969 64.175781 19.078125 64.507812 19.222656 64.851562 C 19.59375 64.851562 19.964844 64.875 20.332031 64.894531 C 22.402344 65.011719 24.214844 65.117188 25.96875 61.621094 C 23.652344 60.511719 21.519531 59.078125 19.632812 57.378906 C 17.066406 60.339844 17.855469 61.972656 18.757812 63.84375 " fill-opacity="1" fill-rule="nonzero"/><path fill="#5271ff" d="M 25.96875 13.375 C 24.214844 9.882812 22.402344 9.984375 20.332031 10.105469 C 19.964844 10.125 19.59375 10.144531 19.222656 10.144531 C 19.078125 10.488281 18.917969 10.824219 18.757812 11.15625 C 17.855469 13.023438 17.066406 14.660156 19.632812 17.621094 C 21.519531 15.921875 23.652344 14.488281 25.96875 13.375 " fill-opacity="1" fill-rule="nonzero"/><path fill="#5271ff" d="M 30.265625 69.011719 C 30.539062 69.253906 30.816406 69.503906 31.082031 69.765625 C 31.425781 69.625 31.777344 69.5 32.121094 69.378906 C 34.078125 68.695312 35.792969 68.097656 36.074219 64.199219 C 33.46875 64.0625 30.953125 63.550781 28.59375 62.714844 C 27.367188 66.421875 28.71875 67.628906 30.265625 69.011719 " fill-opacity="1" fill-rule="nonzero"/><path fill="#5271ff" d="M 36.074219 10.796875 C 35.792969 6.902344 34.078125 6.304688 32.121094 5.617188 C 31.777344 5.5 31.425781 5.375 31.082031 5.234375 C 30.816406 5.496094 30.539062 5.746094 30.265625 5.988281 C 28.71875 7.371094 27.367188 8.578125 28.59375 12.285156 C 30.953125 11.449219 33.46875 10.933594 36.074219 10.796875 " fill-opacity="1" fill-rule="nonzero"/><path fill="#5271ff" d="M 64.894531 20.332031 C 64.875 19.96875 64.851562 19.59375 64.851562 19.222656 C 64.507812 19.078125 64.171875 18.917969 63.84375 18.757812 C 61.972656 17.855469 60.335938 17.066406 57.375 19.632812 C 59.074219 21.519531 60.511719 23.652344 61.621094 25.96875 C 65.113281 24.214844 65.011719 22.402344 64.894531 20.332031 " fill-opacity="1" fill-rule="nonzero"/><path fill="#5271ff" d="M 64.199219 36.078125 C 68.097656 35.792969 68.695312 34.082031 69.378906 32.121094 C 69.5 31.777344 69.621094 31.425781 69.765625 31.082031 C 69.5 30.816406 69.253906 30.539062 69.007812 30.265625 C 67.628906 28.71875 66.421875 27.367188 62.714844 28.59375 C 63.550781 30.957031 64.0625 33.46875 64.199219 36.078125 " fill-opacity="1" fill-rule="nonzero"/><path fill="#5271ff" d="M 44.730469 5.988281 C 44.457031 5.746094 44.179688 5.496094 43.917969 5.234375 C 43.574219 5.375 43.222656 5.5 42.875 5.617188 C 40.917969 6.304688 39.203125 6.902344 38.921875 10.796875 C 41.53125 10.933594 44.042969 11.449219 46.402344 12.285156 C 47.632812 8.578125 46.277344 7.371094 44.730469 5.988281 " fill-opacity="1" fill-rule="nonzero"/><path fill="#5271ff" d="M 56.238281 11.15625 C 56.082031 10.824219 55.917969 10.488281 55.777344 10.144531 L 55.773438 10.144531 C 55.402344 10.144531 55.03125 10.125 54.664062 10.101562 C 52.597656 9.988281 50.785156 9.882812 49.03125 13.375 C 51.34375 14.488281 53.476562 15.921875 55.363281 17.621094 C 57.929688 14.660156 57.140625 13.023438 56.238281 11.15625 " fill-opacity="1" fill-rule="nonzero"/><path fill="#5271ff" d="M 38.921875 64.199219 C 39.289062 68.738281 41.371094 68.738281 43.917969 69.765625 C 44.179688 69.503906 44.457031 69.253906 44.730469 69.011719 C 46.277344 67.628906 47.632812 66.421875 46.402344 62.714844 C 44.042969 63.550781 41.53125 64.0625 38.921875 64.199219 " fill-opacity="1" fill-rule="nonzero"/><path fill="#5271ff" d="M 33.796875 48.101562 L 37.5 54.515625 L 41.199219 48.101562 C 38.90625 48.933594 36.09375 48.933594 33.796875 48.101562 " fill-opacity="1" fill-rule="nonzero"/><path fill="#5271ff" d="M 49.03125 61.621094 C 51.105469 65.671875 53.03125 64.878906 55.773438 64.855469 L 55.777344 64.855469 C 55.917969 64.507812 56.082031 64.175781 56.238281 63.84375 C 57.140625 61.972656 57.929688 60.339844 55.363281 57.378906 C 53.476562 59.078125 51.34375 60.511719 49.03125 61.621094 " fill-opacity="1" fill-rule="nonzero"/><path fill="#5271ff" d="M 54.5625 30.488281 L 39.957031 55.785156 C 51.601562 54.453125 59.289062 41.394531 54.5625 30.488281 " fill-opacity="1" fill-rule="nonzero"/><path fill="#5271ff" d="M 16.289062 37.5 C 16.289062 25.804688 25.804688 16.289062 37.5 16.289062 C 49.195312 16.289062 58.710938 25.804688 58.710938 37.5 C 57.648438 65.59375 17.355469 65.601562 16.289062 37.5 Z M 61.472656 37.5 C 60.273438 5.746094 14.730469 5.738281 13.523438 37.5 C 13.523438 50.71875 24.277344 61.476562 37.5 61.476562 C 50.71875 61.476562 61.472656 50.71875 61.472656 37.5 " fill-opacity="1" fill-rule="nonzero"/><path fill="#5271ff" d="M 61.621094 49.03125 C 60.511719 51.347656 59.074219 53.476562 57.375 55.367188 C 60.335938 57.929688 61.972656 57.140625 63.84375 56.242188 C 64.171875 56.082031 64.507812 55.921875 64.851562 55.777344 C 64.851562 55.40625 64.875 55.03125 64.894531 54.667969 C 65.011719 52.597656 65.113281 50.785156 61.621094 49.03125 " fill-opacity="1" fill-rule="nonzero"/><path fill="#5271ff" d="M 64.199219 38.921875 C 64.0625 41.53125 63.550781 44.042969 62.714844 46.402344 C 66.421875 47.632812 67.628906 46.277344 69.007812 44.734375 C 69.253906 44.460938 69.5 44.179688 69.765625 43.917969 C 69.621094 43.574219 69.5 43.222656 69.378906 42.875 C 68.695312 40.917969 68.097656 39.207031 64.199219 38.921875 " fill-opacity="1" fill-rule="nonzero"/><path fill="#5271ff" d="M 52.210938 29.035156 L 44.871094 29.035156 C 46.730469 30.65625 48.054688 32.882812 48.53125 35.40625 L 52.210938 29.035156 " fill-opacity="1" fill-rule="nonzero"/><path fill="#5271ff" d="M 19.050781 37.5 C 19.050781 46.839844 26.027344 54.578125 35.039062 55.785156 L 20.4375 30.488281 C 19.542969 32.652344 19.050781 35.019531 19.050781 37.5 " fill-opacity="1" fill-rule="nonzero"/><path fill="#5271ff" d="M 37.5 29.035156 C 26.285156 29.457031 26.285156 45.539062 37.5 45.964844 C 42.167969 45.964844 45.964844 42.167969 45.964844 37.5 C 45.964844 32.832031 42.167969 29.035156 37.5 29.035156 " fill-opacity="1" fill-rule="nonzero"/><path fill="#5271ff" d="M 72.257812 45.414062 C 71.886719 45.660156 71.492188 46.101562 71.070312 46.574219 C 70.085938 47.679688 68.792969 49.125 66.527344 49.523438 C 67.847656 51.410156 67.738281 53.34375 67.65625 54.824219 C 67.617188 55.453125 67.585938 56.046875 67.671875 56.480469 C 67.746094 56.84375 67.671875 57.21875 67.46875 57.523438 C 67.261719 57.832031 66.945312 58.042969 66.582031 58.113281 C 66.148438 58.199219 65.609375 58.457031 65.042969 58.730469 C 63.992188 59.238281 62.683594 59.871094 61.074219 59.871094 C 60.644531 59.871094 60.191406 59.824219 59.71875 59.71875 C 60.378906 62.738281 58.78125 64.386719 58.113281 66.582031 C 58.042969 66.945312 57.828125 67.265625 57.523438 67.46875 C 57.214844 67.675781 56.839844 67.746094 56.480469 67.675781 C 56.046875 67.585938 55.453125 67.621094 54.824219 67.65625 C 53.34375 67.738281 51.410156 67.847656 49.523438 66.53125 C 49.125 68.796875 47.675781 70.085938 46.570312 71.074219 C 46.101562 71.492188 45.65625 71.886719 45.414062 72.257812 C 45.210938 72.566406 44.890625 72.777344 44.53125 72.851562 C 44.171875 72.921875 43.792969 72.847656 43.488281 72.640625 C 43.121094 72.394531 42.558594 72.195312 41.964844 71.988281 C 40.566406 71.5 38.734375 70.863281 37.5 68.921875 C 36.261719 70.863281 34.433594 71.5 33.035156 71.988281 C 32.4375 72.195312 31.875 72.394531 31.511719 72.640625 C 31.203125 72.847656 30.824219 72.921875 30.46875 72.851562 C 30.105469 72.777344 29.789062 72.566406 29.585938 72.257812 C 29.339844 71.886719 28.894531 71.492188 28.425781 71.074219 C 27.320312 70.085938 25.875 68.796875 25.472656 66.53125 C 23.589844 67.847656 21.65625 67.738281 20.175781 67.65625 C 19.546875 67.621094 18.953125 67.585938 18.519531 67.675781 C 18.160156 67.746094 17.78125 67.675781 17.472656 67.46875 C 17.167969 67.265625 16.957031 66.945312 16.886719 66.582031 C 16.21875 64.386719 14.621094 62.742188 15.28125 59.71875 C 13.441406 60.210938 11.28125 59.441406 9.953125 58.730469 C 9.386719 58.457031 8.851562 58.199219 8.414062 58.113281 C 8.054688 58.042969 7.734375 57.832031 7.53125 57.523438 C 7.324219 57.21875 7.25 56.84375 7.324219 56.480469 C 7.414062 56.046875 7.378906 55.453125 7.34375 54.824219 C 7.261719 53.34375 7.148438 51.410156 8.46875 49.523438 C 6.203125 49.125 4.914062 47.679688 3.925781 46.574219 C 3.507812 46.101562 3.109375 45.660156 2.742188 45.414062 C 2.433594 45.210938 2.21875 44.894531 2.148438 44.53125 C 2.074219 44.167969 2.152344 43.792969 2.359375 43.488281 C 2.605469 43.121094 2.800781 42.558594 3.007812 41.964844 C 3.5 40.566406 4.136719 38.738281 6.078125 37.5 C 4.136719 36.261719 3.5 34.433594 3.007812 33.035156 C 2.800781 32.441406 2.605469 31.878906 2.355469 31.511719 C 2.152344 31.207031 2.074219 30.828125 2.148438 30.46875 C 2.21875 30.105469 2.433594 29.789062 2.742188 29.585938 C 4.511719 28.128906 5.425781 26.023438 8.46875 25.476562 C 7.148438 23.589844 7.261719 21.65625 7.34375 20.175781 C 7.378906 19.546875 7.414062 18.953125 7.324219 18.519531 C 7.160156 17.789062 7.679688 17.015625 8.414062 16.886719 C 8.851562 16.800781 9.386719 16.542969 9.953125 16.269531 C 11.289062 15.625 13.035156 14.785156 15.28125 15.28125 C 14.785156 13.035156 15.625 11.289062 16.269531 9.953125 C 16.542969 9.386719 16.800781 8.851562 16.886719 8.417969 C 16.957031 8.054688 17.167969 7.734375 17.472656 7.53125 C 17.78125 7.324219 18.15625 7.253906 18.515625 7.324219 C 18.953125 7.414062 19.546875 7.378906 20.175781 7.34375 C 21.65625 7.261719 23.589844 7.152344 25.472656 8.46875 C 25.875 6.203125 27.320312 4.914062 28.425781 3.925781 C 28.894531 3.507812 29.339844 3.109375 29.585938 2.742188 C 29.984375 2.109375 30.898438 1.929688 31.511719 2.359375 C 31.875 2.605469 32.4375 2.804688 33.035156 3.011719 C 34.433594 3.5 36.261719 4.136719 37.5 6.078125 C 38.734375 4.136719 40.5625 3.5 41.964844 3.011719 C 42.558594 2.804688 43.121094 2.605469 43.488281 2.359375 C 43.792969 2.152344 44.167969 2.078125 44.53125 2.148438 C 44.890625 2.21875 45.210938 2.433594 45.414062 2.742188 C 45.65625 3.109375 46.101562 3.507812 46.570312 3.925781 C 47.675781 4.914062 49.125 6.203125 49.523438 8.46875 C 51.410156 7.152344 53.34375 7.261719 54.824219 7.34375 C 55.453125 7.378906 56.046875 7.414062 56.480469 7.324219 C 56.839844 7.253906 57.21875 7.324219 57.523438 7.53125 C 57.828125 7.734375 58.042969 8.054688 58.113281 8.417969 C 58.195312 8.851562 58.457031 9.386719 58.730469 9.953125 C 59.371094 11.289062 60.214844 13.035156 59.71875 15.28125 C 61.964844 14.785156 63.707031 15.625 65.042969 16.269531 C 65.609375 16.542969 66.148438 16.800781 66.582031 16.886719 C 66.945312 16.957031 67.261719 17.167969 67.46875 17.476562 C 67.671875 17.78125 67.746094 18.15625 67.671875 18.519531 C 67.585938 18.953125 67.617188 19.546875 67.65625 20.175781 C 67.738281 21.65625 67.847656 23.589844 66.527344 25.476562 C 68.792969 25.875 70.085938 27.320312 71.070312 28.425781 C 71.492188 28.898438 71.886719 29.339844 72.257812 29.585938 C 72.566406 29.789062 72.777344 30.105469 72.847656 30.46875 C 72.921875 30.828125 72.847656 31.203125 72.640625 31.511719 C 72.390625 31.878906 72.195312 32.441406 71.988281 33.035156 C 71.5 34.433594 70.859375 36.261719 68.921875 37.5 C 70.859375 38.738281 71.5 40.566406 71.988281 41.964844 C 72.195312 42.558594 72.390625 43.121094 72.640625 43.488281 C 72.847656 43.792969 72.921875 44.171875 72.847656 44.53125 C 72.777344 44.894531 72.566406 45.210938 72.257812 45.414062 Z M 74.398438 42.300781 C 74.296875 42.144531 74.113281 41.617188 73.992188 41.265625 C 73.625 40.214844 73.136719 38.808594 72.074219 37.5 C 73.136719 36.191406 73.628906 34.773438 74 33.707031 C 74.121094 33.363281 74.300781 32.847656 74.402344 32.695312 C 74.917969 31.925781 75.113281 30.964844 74.929688 30.054688 C 74.753906 29.144531 74.203125 28.328125 73.429688 27.816406 C 73.277344 27.710938 72.902344 27.292969 72.65625 27.011719 C 71.917969 26.183594 70.921875 25.070312 69.441406 24.269531 C 69.921875 22.65625 69.835938 21.164062 69.773438 20.054688 C 69.75 19.683594 69.71875 19.125 69.753906 18.9375 C 69.9375 18.03125 69.746094 17.066406 69.234375 16.296875 C 68.71875 15.523438 67.898438 14.976562 66.992188 14.804688 C 66.808594 14.765625 66.304688 14.519531 65.964844 14.359375 C 64.953125 13.871094 63.621094 13.226562 61.949219 13.054688 C 61.773438 11.378906 61.125 10.03125 60.640625 9.03125 C 60.488281 8.71875 60.234375 8.191406 60.199219 8.019531 C 60.023438 7.105469 59.476562 6.285156 58.703125 5.765625 C 58.128906 5.378906 57.453125 5.175781 56.757812 5.175781 C 56.519531 5.175781 56.285156 5.199219 56.058594 5.246094 C 55.984375 5.257812 55.902344 5.257812 55.816406 5.257812 C 55.800781 5.257812 55.785156 5.257812 55.769531 5.257812 C 55.515625 5.257812 55.234375 5.242188 54.941406 5.226562 C 54.523438 5.203125 54.070312 5.175781 53.589844 5.175781 C 52.820312 5.175781 51.824219 5.230469 50.730469 5.558594 C 49.929688 4.078125 48.8125 3.082031 47.984375 2.339844 C 47.722656 2.109375 47.289062 1.722656 47.183594 1.570312 C 46.671875 0.796875 45.855469 0.25 44.945312 0.0664062 C 44.71875 0.0234375 44.488281 0 44.261719 0 C 43.558594 0 42.878906 0.207031 42.304688 0.597656 C 42.144531 0.699219 41.617188 0.882812 41.265625 1.007812 C 40.214844 1.371094 38.804688 1.863281 37.5 2.925781 C 36.191406 1.863281 34.78125 1.371094 33.730469 1.007812 C 33.402344 0.890625 32.851562 0.699219 32.734375 0.625 C 32.15625 0.214844 31.46875 0.00390625 30.75 0.00390625 C 29.550781 0.00390625 28.417969 0.617188 27.816406 1.566406 C 27.710938 1.722656 27.289062 2.097656 27.011719 2.34375 C 26.183594 3.085938 25.070312 4.078125 24.265625 5.558594 C 23.171875 5.230469 22.175781 5.175781 21.40625 5.175781 C 20.929688 5.175781 20.472656 5.203125 20.054688 5.226562 C 19.765625 5.242188 19.484375 5.257812 19.226562 5.257812 C 19.210938 5.257812 19.195312 5.257812 19.183594 5.257812 C 19.09375 5.257812 19.011719 5.257812 18.9375 5.246094 C 18.707031 5.199219 18.472656 5.175781 18.242188 5.175781 C 17.546875 5.175781 16.871094 5.378906 16.292969 5.765625 C 15.523438 6.28125 14.980469 7.101562 14.800781 8.011719 C 14.761719 8.191406 14.519531 8.699219 14.355469 9.035156 C 13.875 10.035156 13.226562 11.378906 13.050781 13.054688 C 11.375 13.226562 10.042969 13.871094 9.03125 14.359375 C 8.695312 14.519531 8.1875 14.765625 8.054688 14.792969 C 7.132812 14.953125 6.300781 15.5 5.769531 16.292969 C 5.238281 17.089844 5.050781 18.070312 5.246094 18.941406 C 5.277344 19.125 5.246094 19.679688 5.222656 20.0625 C 5.160156 21.171875 5.078125 22.65625 5.554688 24.261719 C 4.238281 24.972656 3.347656 25.933594 2.582031 26.765625 C 2.195312 27.179688 1.832031 27.574219 1.453125 27.894531 C 0.730469 28.417969 0.242188 29.175781 0.0664062 30.054688 C -0.113281 30.964844 0.078125 31.929688 0.597656 32.695312 C 0.695312 32.847656 0.878906 33.378906 1.007812 33.738281 C 1.371094 34.785156 1.863281 36.195312 2.921875 37.5 C 1.863281 38.804688 1.371094 40.214844 1.003906 41.265625 C 0.882812 41.617188 0.695312 42.148438 0.601562 42.296875 C 0.078125 43.070312 -0.113281 44.03125 0.0664062 44.945312 C 0.246094 45.859375 0.796875 46.675781 1.566406 47.183594 C 1.722656 47.289062 2.09375 47.707031 2.34375 47.988281 C 3.082031 48.816406 4.078125 49.929688 5.554688 50.730469 C 5.078125 52.347656 5.164062 53.84375 5.226562 54.972656 C 5.246094 55.332031 5.277344 55.878906 5.242188 56.058594 C 5.058594 56.96875 5.25 57.929688 5.765625 58.707031 C 6.289062 59.488281 7.085938 60.019531 8.011719 60.199219 C 8.191406 60.238281 8.695312 60.480469 8.953125 60.601562 C 9.773438 61.042969 11.292969 61.734375 13.042969 61.9375 C 13.195312 63.429688 13.746094 64.621094 14.21875 65.652344 C 14.457031 66.164062 14.679688 66.652344 14.832031 67.128906 C 15.035156 67.984375 15.5625 68.746094 16.292969 69.230469 C 16.871094 69.617188 17.546875 69.824219 18.242188 69.824219 C 18.476562 69.824219 18.710938 69.800781 18.941406 69.753906 C 19.011719 69.742188 19.09375 69.742188 19.183594 69.742188 C 19.199219 69.742188 19.214844 69.742188 19.226562 69.742188 C 19.484375 69.742188 19.765625 69.757812 20.054688 69.773438 C 20.472656 69.796875 20.929688 69.824219 21.40625 69.824219 C 22.175781 69.824219 23.171875 69.769531 24.265625 69.445312 C 25.070312 70.921875 26.1875 71.921875 27.027344 72.671875 C 27.300781 72.914062 27.710938 73.28125 27.816406 73.433594 C 28.328125 74.207031 29.144531 74.753906 30.050781 74.933594 C 30.277344 74.976562 30.507812 75 30.738281 75 C 31.441406 75 32.121094 74.792969 32.695312 74.402344 C 32.847656 74.304688 33.375 74.121094 33.734375 73.992188 C 34.78125 73.625 36.191406 73.136719 37.5 72.074219 C 38.808594 73.136719 40.21875 73.628906 41.28125 73.996094 C 41.625 74.121094 42.152344 74.304688 42.296875 74.398438 C 42.878906 74.792969 43.558594 75 44.261719 75 C 44.492188 75 44.722656 74.976562 44.945312 74.933594 C 45.855469 74.75 46.671875 74.203125 47.183594 73.429688 C 47.289062 73.277344 47.707031 72.90625 47.988281 72.65625 C 48.816406 71.917969 49.929688 70.921875 50.730469 69.445312 C 51.824219 69.769531 52.824219 69.824219 53.59375 69.824219 C 54.070312 69.824219 54.523438 69.796875 54.945312 69.773438 C 55.234375 69.757812 55.515625 69.742188 55.769531 69.742188 C 55.785156 69.742188 55.800781 69.742188 55.816406 69.742188 C 55.90625 69.742188 55.984375 69.742188 56.054688 69.753906 C 56.285156 69.800781 56.519531 69.824219 56.753906 69.824219 C 57.449219 69.824219 58.125 69.621094 58.707031 69.230469 C 59.4375 68.742188 59.964844 67.984375 60.167969 67.128906 C 60.320312 66.652344 60.542969 66.164062 60.777344 65.652344 C 61.25 64.621094 61.800781 63.433594 61.957031 61.945312 C 63.628906 61.769531 64.957031 61.128906 65.964844 60.640625 C 66.300781 60.480469 66.808594 60.238281 66.992188 60.195312 C 67.902344 60.019531 68.71875 59.472656 69.234375 58.703125 C 69.746094 57.929688 69.9375 56.96875 69.753906 56.058594 C 69.71875 55.875 69.75 55.3125 69.773438 54.945312 C 69.835938 53.835938 69.921875 52.34375 69.441406 50.730469 C 70.921875 49.929688 71.917969 48.816406 72.65625 47.984375 C 72.886719 47.726562 73.269531 47.296875 73.433594 47.179688 C 74.207031 46.667969 74.753906 45.855469 74.933594 44.945312 C 75.113281 44.035156 74.917969 43.070312 74.398438 42.300781 " fill-opacity="1" fill-rule="nonzero"/><path fill="#5271ff" d="M 37.5 19.050781 C 31.546875 19.050781 26.246094 21.882812 22.871094 26.269531 L 52.125 26.269531 C 48.75 21.882812 43.449219 19.050781 37.5 19.050781 " fill-opacity="1" fill-rule="nonzero"/><path fill="#5271ff" d="M 30.128906 29.035156 L 22.789062 29.035156 L 26.464844 35.40625 C 26.945312 32.882812 28.265625 30.65625 30.128906 29.035156 " fill-opacity="1" fill-rule="nonzero"/></svg>